<svg xmlns="http://www.w3.org/2000/svg" viewBox="0 0 192 256">
  <style>
.body-group{animation:jumpshock 1.5s ease-in-out infinite;transform-origin:96px 240px}
    @keyframes jumpshock{0%,60%,100%{transform:translateY(0)}15%,45%{transform:translateY(-20px)}}
  </style>
  <g class="body-group">
    <rect x="56" y="0" width="8" height="8" fill="#f0dcc0"/>
<rect x="64" y="0" width="8" height="8" fill="#f0dcc0"/>
<rect x="128" y="0" width="8" height="8" fill="#f0dcc0"/>
<rect x="136" y="0" width="8" height="8" fill="#f0dcc0"/>
<rect x="48" y="8" width="8" height="8" fill="#2a2a3a"/>
<rect x="56" y="8" width="8" height="8" fill="#f0dcc0"/>
<rect x="64" y="8" width="8" height="8" fill="#f0dcc0"/>
<rect x="72" y="8" width="8" height="8" fill="#2a2a3a"/>
<rect x="120" y="8" width="8" height="8" fill="#2a2a3a"/>
<rect x="128" y="8" width="8" height="8" fill="#f0dcc0"/>
<rect x="136" y="8" width="8" height="8" fill="#f0dcc0"/>
<rect x="144" y="8" width="8" height="8" fill="#2a2a3a"/>
<rect x="40" y="16" width="8" height="8" fill="#2a2a3a"/>
<rect x="48" y="16" width="8" height="8" fill="#f0dcc0"/>
<rect x="56" y="16" width="8" height="8" fill="#faf9ff"/>
<rect x="64" y="16" width="8" height="8" fill="#e07050"/>
<rect x="72" y="16" width="8" height="8" fill="#f0dcc0"/>
<rect x="80" y="16" width="8" height="8" fill="#2a2a3a"/>
<rect x="112" y="16" width="8" height="8" fill="#2a2a3a"/>
<rect x="120" y="16" width="8" height="8" fill="#f0dcc0"/>
<rect x="128" y="16" width="8" height="8" fill="#e07050"/>
<rect x="136" y="16" width="8" height="8" fill="#faf9ff"/>
<rect x="144" y="16" width="8" height="8" fill="#f0dcc0"/>
<rect x="152" y="16" width="8" height="8" fill="#2a2a3a"/>
<rect x="32" y="24" width="8" height="8" fill="#2a2a3a"/>
<rect x="40" y="24" width="8" height="8" fill="#f0dcc0"/>
<rect x="48" y="24" width="8" height="8" fill="#e07050"/>
<rect x="56" y="24" width="8" height="8" fill="#e07050"/>
<rect x="64" y="24" width="8" height="8" fill="#e07050"/>
<rect x="72" y="24" width="8" height="8" fill="#f0dcc0"/>
<rect x="80" y="24" width="8" height="8" fill="#f0dcc0"/>
<rect x="88" y="24" width="8" height="8" fill="#2a2a3a"/>
<rect x="104" y="24" width="8" height="8" fill="#2a2a3a"/>
<rect x="112" y="24" width="8" height="8" fill="#f0dcc0"/>
<rect x="120" y="24" width="8" height="8" fill="#f0dcc0"/>
<rect x="128" y="24" width="8" height="8" fill="#f0dcc0"/>
<rect x="136" y="24" width="8" height="8" fill="#f0dcc0"/>
<rect x="144" y="24" width="8" height="8" fill="#e07050"/>
<rect x="152" y="24" width="8" height="8" fill="#e07050"/>
<rect x="160" y="24" width="8" height="8" fill="#2a2a3a"/>
<rect x="24" y="32" width="8" height="8" fill="#2a2a3a"/>
<rect x="32" y="32" width="8" height="8" fill="#f0dcc0"/>
<rect x="40" y="32" width="8" height="8" fill="#e07050"/>
<rect x="48" y="32" width="8" height="8" fill="#e07050"/>
<rect x="56" y="32" width="8" height="8" fill="#f0dcc0"/>
<rect x="64" y="32" width="8" height="8" fill="#f0dcc0"/>
<rect x="72" y="32" width="8" height="8" fill="#f0dcc0"/>
<rect x="80" y="32" width="8" height="8" fill="#f0dcc0"/>
<rect x="88" y="32" width="8" height="8" fill="#f0dcc0"/>
<rect x="96" y="32" width="8" height="8" fill="#2a2a3a"/>
<rect x="104" y="32" width="8" height="8" fill="#f0dcc0"/>
<rect x="112" y="32" width="8" height="8" fill="#f0dcc0"/>
<rect x="120" y="32" width="8" height="8" fill="#f0dcc0"/>
<rect x="128" y="32" width="8" height="8" fill="#f0dcc0"/>
<rect x="136" y="32" width="8" height="8" fill="#f0dcc0"/>
<rect x="144" y="32" width="8" height="8" fill="#f0dcc0"/>
<rect x="152" y="32" width="8" height="8" fill="#e07050"/>
<rect x="160" y="32" width="8" height="8" fill="#f0dcc0"/>
<rect x="168" y="32" width="8" height="8" fill="#2a2a3a"/>
<rect x="40" y="40" width="8" height="8" fill="#2a2a3a"/>
<rect x="48" y="40" width="8" height="8" fill="#f0dcc0"/>
<rect x="56" y="40" width="8" height="8" fill="#f0dcc0"/>
<rect x="64" y="40" width="8" height="8" fill="#f0dcc0"/>
<rect x="72" y="40" width="8" height="8" fill="#f0dcc0"/>
<rect x="80" y="40" width="8" height="8" fill="#f0dcc0"/>
<rect x="88" y="40" width="8" height="8" fill="#f0dcc0"/>
<rect x="96" y="40" width="8" height="8" fill="#f0dcc0"/>
<rect x="104" y="40" width="8" height="8" fill="#f0dcc0"/>
<rect x="112" y="40" width="8" height="8" fill="#f0dcc0"/>
<rect x="120" y="40" width="8" height="8" fill="#f0dcc0"/>
<rect x="128" y="40" width="8" height="8" fill="#f0dcc0"/>
<rect x="136" y="40" width="8" height="8" fill="#f0dcc0"/>
<rect x="144" y="40" width="8" height="8" fill="#2a2a3a"/>
<rect x="24" y="48" width="8" height="8" fill="#2a2a3a"/>
<rect x="32" y="48" width="8" height="8" fill="#f0dcc0"/>
<rect x="40" y="48" width="8" height="8" fill="#f0dcc0"/>
<rect x="48" y="48" width="8" height="8" fill="#f0dcc0"/>
<rect x="56" y="48" width="8" height="8" fill="#f0dcc0"/>
<rect x="64" y="48" width="8" height="8" fill="#f0dcc0"/>
<rect x="72" y="48" width="8" height="8" fill="#f0dcc0"/>
<rect x="80" y="48" width="8" height="8" fill="#f0dcc0"/>
<rect x="88" y="48" width="8" height="8" fill="#f0dcc0"/>
<rect x="96" y="48" width="8" height="8" fill="#f0dcc0"/>
<rect x="104" y="48" width="8" height="8" fill="#f0dcc0"/>
<rect x="112" y="48" width="8" height="8" fill="#f0dcc0"/>
<rect x="120" y="48" width="8" height="8" fill="#f0dcc0"/>
<rect x="128" y="48" width="8" height="8" fill="#f0dcc0"/>
<rect x="136" y="48" width="8" height="8" fill="#f0dcc0"/>
<rect x="144" y="48" width="8" height="8" fill="#f0dcc0"/>
<rect x="152" y="48" width="8" height="8" fill="#f0dcc0"/>
<rect x="160" y="48" width="8" height="8" fill="#2a2a3a"/>
<rect x="16" y="56" width="8" height="8" fill="#2a2a3a"/>
<rect x="24" y="56" width="8" height="8" fill="#f0dcc0"/>
<rect x="32" y="56" width="8" height="8" fill="#f0dcc0"/>
<rect x="40" y="56" width="8" height="8" fill="#f0dcc0"/>
<rect x="48" y="56" width="8" height="8" fill="#f0dcc0"/>
<rect x="56" y="56" width="8" height="8" fill="#f0dcc0"/>
<rect x="64" y="56" width="8" height="8" fill="#f0dcc0"/>
<rect x="72" y="56" width="8" height="8" fill="#f0dcc0"/>
<rect x="80" y="56" width="8" height="8" fill="#f0dcc0"/>
<rect x="88" y="56" width="8" height="8" fill="#f0dcc0"/>
<rect x="96" y="56" width="8" height="8" fill="#f0dcc0"/>
<rect x="104" y="56" width="8" height="8" fill="#f0dcc0"/>
<rect x="112" y="56" width="8" height="8" fill="#f0dcc0"/>
<rect x="120" y="56" width="8" height="8" fill="#f0dcc0"/>
<rect x="128" y="56" width="8" height="8" fill="#f0dcc0"/>
<rect x="136" y="56" width="8" height="8" fill="#f0dcc0"/>
<rect x="144" y="56" width="8" height="8" fill="#f0dcc0"/>
<rect x="152" y="56" width="8" height="8" fill="#f0dcc0"/>
<rect x="160" y="56" width="8" height="8" fill="#f0dcc0"/>
<rect x="168" y="56" width="8" height="8" fill="#2a2a3a"/>
<rect x="8" y="64" width="8" height="8" fill="#2a2a3a"/>
<rect x="16" y="64" width="8" height="8" fill="#c4a878"/>
<rect x="24" y="64" width="8" height="8" fill="#f0dcc0"/>
<rect x="32" y="64" width="8" height="8" fill="#f0dcc0"/>
<rect x="40" y="64" width="8" height="8" fill="#f0dcc0"/>
<rect x="48" y="64" width="8" height="8" fill="#f0dcc0"/>
<rect x="56" y="64" width="8" height="8" fill="#f0dcc0"/>
<rect x="64" y="64" width="8" height="8" fill="#f0dcc0"/>
<rect x="72" y="64" width="8" height="8" fill="#f0dcc0"/>
<rect x="80" y="64" width="8" height="8" fill="#f0dcc0"/>
<rect x="88" y="64" width="8" height="8" fill="#f0dcc0"/>
<rect x="96" y="64" width="8" height="8" fill="#f0dcc0"/>
<rect x="104" y="64" width="8" height="8" fill="#f0dcc0"/>
<rect x="112" y="64" width="8" height="8" fill="#f0dcc0"/>
<rect x="120" y="64" width="8" height="8" fill="#f0dcc0"/>
<rect x="128" y="64" width="8" height="8" fill="#f0dcc0"/>
<rect x="136" y="64" width="8" height="8" fill="#f0dcc0"/>
<rect x="144" y="64" width="8" height="8" fill="#f0dcc0"/>
<rect x="152" y="64" width="8" height="8" fill="#f0dcc0"/>
<rect x="160" y="64" width="8" height="8" fill="#f0dcc0"/>
<rect x="168" y="64" width="8" height="8" fill="#f0dcc0"/>
<rect x="176" y="64" width="8" height="8" fill="#2a2a3a"/>
<rect x="0" y="72" width="8" height="8" fill="#2a2a3a"/>
<rect x="8" y="72" width="8" height="8" fill="#c4a878"/>
<rect x="16" y="72" width="8" height="8" fill="#f0dcc0"/>
<rect x="24" y="72" width="8" height="8" fill="#f0dcc0"/>
<rect x="32" y="72" width="8" height="8" fill="#f0dcc0"/>
<rect x="40" y="72" width="8" height="8" fill="#f0dcc0"/>
<rect x="48" y="72" width="8" height="8" fill="#f0dcc0"/>
<rect x="56" y="72" width="8" height="8" fill="#f0dcc0"/>
<rect x="64" y="72" width="8" height="8" fill="#f0dcc0"/>
<rect x="72" y="72" width="8" height="8" fill="#f0dcc0"/>
<rect x="80" y="72" width="8" height="8" fill="#f0dcc0"/>
<rect x="88" y="72" width="8" height="8" fill="#f0dcc0"/>
<rect x="96" y="72" width="8" height="8" fill="#f0dcc0"/>
<rect x="104" y="72" width="8" height="8" fill="#f0dcc0"/>
<rect x="112" y="72" width="8" height="8" fill="#f0dcc0"/>
<rect x="120" y="72" width="8" height="8" fill="#f0dcc0"/>
<rect x="128" y="72" width="8" height="8" fill="#f0dcc0"/>
<rect x="136" y="72" width="8" height="8" fill="#f0dcc0"/>
<rect x="144" y="72" width="8" height="8" fill="#f0dcc0"/>
<rect x="152" y="72" width="8" height="8" fill="#f0dcc0"/>
<rect x="160" y="72" width="8" height="8" fill="#f0dcc0"/>
<rect x="168" y="72" width="8" height="8" fill="#f0dcc0"/>
<rect x="176" y="72" width="8" height="8" fill="#c4a878"/>
<rect x="184" y="72" width="8" height="8" fill="#2a2a3a"/>
<rect x="0" y="80" width="8" height="8" fill="#2a2a3a"/>
<rect x="8" y="80" width="8" height="8" fill="#c4a878"/>
<rect x="16" y="80" width="8" height="8" fill="#f0dcc0"/>
<rect x="24" y="80" width="8" height="8" fill="#f0dcc0"/>
<rect x="32" y="80" width="8" height="8" fill="#f0dcc0"/>
<rect x="40" y="80" width="8" height="8" fill="#f0dcc0"/>
<rect x="48" y="80" width="8" height="8" fill="#f0dcc0"/>
<rect x="56" y="80" width="8" height="8" fill="#f0dcc0"/>
<rect x="64" y="80" width="8" height="8" fill="#f0dcc0"/>
<rect x="72" y="80" width="8" height="8" fill="#f0dcc0"/>
<rect x="80" y="80" width="8" height="8" fill="#f0dcc0"/>
<rect x="88" y="80" width="8" height="8" fill="#f0dcc0"/>
<rect x="96" y="80" width="8" height="8" fill="#f0dcc0"/>
<rect x="104" y="80" width="8" height="8" fill="#f0dcc0"/>
<rect x="112" y="80" width="8" height="8" fill="#f0dcc0"/>
<rect x="120" y="80" width="8" height="8" fill="#f0dcc0"/>
<rect x="128" y="80" width="8" height="8" fill="#f0dcc0"/>
<rect x="136" y="80" width="8" height="8" fill="#f0dcc0"/>
<rect x="144" y="80" width="8" height="8" fill="#f0dcc0"/>
<rect x="152" y="80" width="8" height="8" fill="#f0dcc0"/>
<rect x="160" y="80" width="8" height="8" fill="#f0dcc0"/>
<rect x="168" y="80" width="8" height="8" fill="#f0dcc0"/>
<rect x="176" y="80" width="8" height="8" fill="#f0dcc0"/>
<rect x="184" y="80" width="8" height="8" fill="#2a2a3a"/>
<rect x="0" y="88" width="8" height="8" fill="#2a2a3a"/>
<rect x="8" y="88" width="8" height="8" fill="#c4a878"/>
<rect x="16" y="88" width="8" height="8" fill="#f0dcc0"/>
<rect x="24" y="88" width="8" height="8" fill="#f0dcc0"/>
<rect x="32" y="88" width="8" height="8" fill="#f0dcc0"/>
<rect x="40" y="88" width="8" height="8" fill="#f0dcc0"/>
<rect x="48" y="88" width="8" height="8" fill="#f0dcc0"/>
<rect x="56" y="88" width="8" height="8" fill="#f0dcc0"/>
<rect x="64" y="88" width="8" height="8" fill="#f0dcc0"/>
<rect x="72" y="88" width="8" height="8" fill="#f0dcc0"/>
<rect x="80" y="88" width="8" height="8" fill="#f0dcc0"/>
<rect x="88" y="88" width="8" height="8" fill="#f0dcc0"/>
<rect x="96" y="88" width="8" height="8" fill="#f0dcc0"/>
<rect x="104" y="88" width="8" height="8" fill="#f0dcc0"/>
<rect x="112" y="88" width="8" height="8" fill="#f0dcc0"/>
<rect x="120" y="88" width="8" height="8" fill="#f0dcc0"/>
<rect x="128" y="88" width="8" height="8" fill="#f0dcc0"/>
<rect x="136" y="88" width="8" height="8" fill="#f0dcc0"/>
<rect x="144" y="88" width="8" height="8" fill="#f0dcc0"/>
<rect x="152" y="88" width="8" height="8" fill="#f0dcc0"/>
<rect x="160" y="88" width="8" height="8" fill="#f0dcc0"/>
<rect x="168" y="88" width="8" height="8" fill="#f0dcc0"/>
<rect x="176" y="88" width="8" height="8" fill="#f0dcc0"/>
<rect x="184" y="88" width="8" height="8" fill="#2a2a3a"/>
<rect x="0" y="96" width="8" height="8" fill="#2a2a3a"/>
<rect x="8" y="96" width="8" height="8" fill="#c4a878"/>
<rect x="16" y="96" width="8" height="8" fill="#f0dcc0"/>
<rect x="24" y="96" width="8" height="8" fill="#f0dcc0"/>
<rect x="32" y="96" width="8" height="8" fill="#f0dcc0"/>
<rect x="40" y="96" width="8" height="8" fill="#f0dcc0"/>
<rect x="48" y="96" width="8" height="8" fill="#f0dcc0"/>
<rect x="56" y="96" width="8" height="8" fill="#f0dcc0"/>
<rect x="64" y="96" width="8" height="8" fill="#f0dcc0"/>
<rect x="72" y="96" width="8" height="8" fill="#f0dcc0"/>
<rect x="80" y="96" width="8" height="8" fill="#f0dcc0"/>
<rect x="88" y="96" width="8" height="8" fill="#f0dcc0"/>
<rect x="96" y="96" width="8" height="8" fill="#f0dcc0"/>
<rect x="104" y="96" width="8" height="8" fill="#f0dcc0"/>
<rect x="112" y="96" width="8" height="8" fill="#f0dcc0"/>
<rect x="120" y="96" width="8" height="8" fill="#f0dcc0"/>
<rect x="128" y="96" width="8" height="8" fill="#f0dcc0"/>
<rect x="136" y="96" width="8" height="8" fill="#f0dcc0"/>
<rect x="144" y="96" width="8" height="8" fill="#f0dcc0"/>
<rect x="152" y="96" width="8" height="8" fill="#f0dcc0"/>
<rect x="160" y="96" width="8" height="8" fill="#f0dcc0"/>
<rect x="168" y="96" width="8" height="8" fill="#f0dcc0"/>
<rect x="176" y="96" width="8" height="8" fill="#f0dcc0"/>
<rect x="184" y="96" width="8" height="8" fill="#2a2a3a"/>
<rect x="0" y="104" width="8" height="8" fill="#2a2a3a"/>
<rect x="8" y="104" width="8" height="8" fill="#c4a878"/>
<rect x="16" y="104" width="8" height="8" fill="#f0dcc0"/>
<rect x="24" y="104" width="8" height="8" fill="#f0dcc0"/>
<rect x="32" y="104" width="8" height="8" fill="#f0dcc0"/>
<rect x="40" y="104" width="8" height="8" fill="#f0dcc0"/>
<rect x="48" y="104" width="8" height="8" fill="#f0dcc0"/>
<rect x="56" y="104" width="8" height="8" fill="#f0dcc0"/>
<rect x="64" y="104" width="8" height="8" fill="#f0dcc0"/>
<rect x="72" y="104" width="8" height="8" fill="#f0dcc0"/>
<rect x="80" y="104" width="8" height="8" fill="#f0dcc0"/>
<rect x="88" y="104" width="8" height="8" fill="#f0dcc0"/>
<rect x="96" y="104" width="8" height="8" fill="#f0dcc0"/>
<rect x="104" y="104" width="8" height="8" fill="#f0dcc0"/>
<rect x="112" y="104" width="8" height="8" fill="#f0dcc0"/>
<rect x="120" y="104" width="8" height="8" fill="#f0dcc0"/>
<rect x="128" y="104" width="8" height="8" fill="#f0dcc0"/>
<rect x="136" y="104" width="8" height="8" fill="#f0dcc0"/>
<rect x="144" y="104" width="8" height="8" fill="#f0dcc0"/>
<rect x="152" y="104" width="8" height="8" fill="#f0dcc0"/>
<rect x="160" y="104" width="8" height="8" fill="#f0dcc0"/>
<rect x="168" y="104" width="8" height="8" fill="#f0dcc0"/>
<rect x="176" y="104" width="8" height="8" fill="#f0dcc0"/>
<rect x="184" y="104" width="8" height="8" fill="#2a2a3a"/>
<rect x="0" y="112" width="8" height="8" fill="#2a2a3a"/>
<rect x="8" y="112" width="8" height="8" fill="#c4a878"/>
<rect x="16" y="112" width="8" height="8" fill="#f0dcc0"/>
<rect x="24" y="112" width="8" height="8" fill="#f0dcc0"/>
<rect x="32" y="112" width="8" height="8" fill="#f0dcc0"/>
<rect x="40" y="112" width="8" height="8" fill="#f0dcc0"/>
<rect x="48" y="112" width="8" height="8" fill="#f0dcc0"/>
<rect x="56" y="112" width="8" height="8" fill="#f0dcc0"/>
<rect x="64" y="112" width="8" height="8" fill="#f0dcc0"/>
<rect x="72" y="112" width="8" height="8" fill="#f0dcc0"/>
<rect x="80" y="112" width="8" height="8" fill="#f0dcc0"/>
<rect x="88" y="112" width="8" height="8" fill="#f0dcc0"/>
<rect x="96" y="112" width="8" height="8" fill="#f0dcc0"/>
<rect x="104" y="112" width="8" height="8" fill="#f0dcc0"/>
<rect x="112" y="112" width="8" height="8" fill="#f0dcc0"/>
<rect x="120" y="112" width="8" height="8" fill="#f0dcc0"/>
<rect x="128" y="112" width="8" height="8" fill="#f0dcc0"/>
<rect x="136" y="112" width="8" height="8" fill="#f0dcc0"/>
<rect x="144" y="112" width="8" height="8" fill="#f0dcc0"/>
<rect x="152" y="112" width="8" height="8" fill="#f0dcc0"/>
<rect x="160" y="112" width="8" height="8" fill="#f0dcc0"/>
<rect x="168" y="112" width="8" height="8" fill="#f0dcc0"/>
<rect x="176" y="112" width="8" height="8" fill="#f0dcc0"/>
<rect x="184" y="112" width="8" height="8" fill="#2a2a3a"/>
<rect x="8" y="120" width="8" height="8" fill="#2a2a3a"/>
<rect x="16" y="120" width="8" height="8" fill="#f0dcc0"/>
<rect x="24" y="120" width="8" height="8" fill="#f0dcc0"/>
<rect x="32" y="120" width="8" height="8" fill="#f0dcc0"/>
<rect x="40" y="120" width="8" height="8" fill="#f0dcc0"/>
<rect x="48" y="120" width="8" height="8" fill="#f0dcc0"/>
<rect x="56" y="120" width="8" height="8" fill="#f0dcc0"/>
<rect x="64" y="120" width="8" height="8" fill="#f0dcc0"/>
<rect x="72" y="120" width="8" height="8" fill="#f0dcc0"/>
<rect x="80" y="120" width="8" height="8" fill="#f0dcc0"/>
<rect x="88" y="120" width="8" height="8" fill="#f0dcc0"/>
<rect x="96" y="120" width="8" height="8" fill="#f0dcc0"/>
<rect x="104" y="120" width="8" height="8" fill="#f0dcc0"/>
<rect x="112" y="120" width="8" height="8" fill="#f0dcc0"/>
<rect x="120" y="120" width="8" height="8" fill="#f0dcc0"/>
<rect x="128" y="120" width="8" height="8" fill="#f0dcc0"/>
<rect x="136" y="120" width="8" height="8" fill="#f0dcc0"/>
<rect x="144" y="120" width="8" height="8" fill="#f0dcc0"/>
<rect x="152" y="120" width="8" height="8" fill="#f0dcc0"/>
<rect x="160" y="120" width="8" height="8" fill="#f0dcc0"/>
<rect x="168" y="120" width="8" height="8" fill="#f0dcc0"/>
<rect x="176" y="120" width="8" height="8" fill="#2a2a3a"/>
<rect x="8" y="128" width="8" height="8" fill="#2a2a3a"/>
<rect x="16" y="128" width="8" height="8" fill="#f0dcc0"/>
<rect x="24" y="128" width="8" height="8" fill="#f0dcc0"/>
<rect x="32" y="128" width="8" height="8" fill="#f0dcc0"/>
<rect x="40" y="128" width="8" height="8" fill="#f0dcc0"/>
<rect x="48" y="128" width="8" height="8" fill="#f0dcc0"/>
<rect x="56" y="128" width="8" height="8" fill="#f0dcc0"/>
<rect x="64" y="128" width="8" height="8" fill="#f0dcc0"/>
<rect x="72" y="128" width="8" height="8" fill="#f0dcc0"/>
<rect x="80" y="128" width="8" height="8" fill="#f0dcc0"/>
<rect x="88" y="128" width="8" height="8" fill="#f0dcc0"/>
<rect x="96" y="128" width="8" height="8" fill="#f0dcc0"/>
<rect x="104" y="128" width="8" height="8" fill="#f0dcc0"/>
<rect x="112" y="128" width="8" height="8" fill="#f0dcc0"/>
<rect x="120" y="128" width="8" height="8" fill="#f0dcc0"/>
<rect x="128" y="128" width="8" height="8" fill="#f0dcc0"/>
<rect x="136" y="128" width="8" height="8" fill="#f0dcc0"/>
<rect x="144" y="128" width="8" height="8" fill="#f0dcc0"/>
<rect x="152" y="128" width="8" height="8" fill="#f0dcc0"/>
<rect x="160" y="128" width="8" height="8" fill="#f0dcc0"/>
<rect x="168" y="128" width="8" height="8" fill="#f0dcc0"/>
<rect x="176" y="128" width="8" height="8" fill="#2a2a3a"/>
<rect x="16" y="136" width="8" height="8" fill="#2a2a3a"/>
<rect x="24" y="136" width="8" height="8" fill="#f0dcc0"/>
<rect x="32" y="136" width="8" height="8" fill="#f0dcc0"/>
<rect x="40" y="136" width="8" height="8" fill="#f0dcc0"/>
<rect x="48" y="136" width="8" height="8" fill="#f0dcc0"/>
<rect x="56" y="136" width="8" height="8" fill="#f0dcc0"/>
<rect x="64" y="136" width="8" height="8" fill="#f0dcc0"/>
<rect x="72" y="136" width="8" height="8" fill="#f0dcc0"/>
<rect x="80" y="136" width="8" height="8" fill="#f0dcc0"/>
<rect x="88" y="136" width="8" height="8" fill="#f0dcc0"/>
<rect x="96" y="136" width="8" height="8" fill="#f0dcc0"/>
<rect x="104" y="136" width="8" height="8" fill="#f0dcc0"/>
<rect x="112" y="136" width="8" height="8" fill="#f0dcc0"/>
<rect x="120" y="136" width="8" height="8" fill="#f0dcc0"/>
<rect x="128" y="136" width="8" height="8" fill="#f0dcc0"/>
<rect x="136" y="136" width="8" height="8" fill="#f0dcc0"/>
<rect x="144" y="136" width="8" height="8" fill="#f0dcc0"/>
<rect x="152" y="136" width="8" height="8" fill="#f0dcc0"/>
<rect x="160" y="136" width="8" height="8" fill="#f0dcc0"/>
<rect x="168" y="136" width="8" height="8" fill="#2a2a3a"/>
<rect x="24" y="144" width="8" height="8" fill="#2a2a3a"/>
<rect x="32" y="144" width="8" height="8" fill="#c4a878"/>
<rect x="40" y="144" width="8" height="8" fill="#c4a878"/>
<rect x="48" y="144" width="8" height="8" fill="#c4a878"/>
<rect x="56" y="144" width="8" height="8" fill="#c4a878"/>
<rect x="64" y="144" width="8" height="8" fill="#c4a878"/>
<rect x="72" y="144" width="8" height="8" fill="#c4a878"/>
<rect x="80" y="144" width="8" height="8" fill="#c4a878"/>
<rect x="88" y="144" width="8" height="8" fill="#c4a878"/>
<rect x="96" y="144" width="8" height="8" fill="#c4a878"/>
<rect x="104" y="144" width="8" height="8" fill="#c4a878"/>
<rect x="112" y="144" width="8" height="8" fill="#c4a878"/>
<rect x="120" y="144" width="8" height="8" fill="#c4a878"/>
<rect x="128" y="144" width="8" height="8" fill="#c4a878"/>
<rect x="136" y="144" width="8" height="8" fill="#c4a878"/>
<rect x="144" y="144" width="8" height="8" fill="#c4a878"/>
<rect x="152" y="144" width="8" height="8" fill="#c4a878"/>
<rect x="160" y="144" width="8" height="8" fill="#2a2a3a"/>
<rect x="32" y="152" width="8" height="8" fill="#2a2a3a"/>
<rect x="40" y="152" width="8" height="8" fill="#c4a878"/>
<rect x="48" y="152" width="8" height="8" fill="#c4a878"/>
<rect x="56" y="152" width="8" height="8" fill="#c4a878"/>
<rect x="64" y="152" width="8" height="8" fill="#c4a878"/>
<rect x="72" y="152" width="8" height="8" fill="#c4a878"/>
<rect x="80" y="152" width="8" height="8" fill="#c4a878"/>
<rect x="88" y="152" width="8" height="8" fill="#c4a878"/>
<rect x="96" y="152" width="8" height="8" fill="#c4a878"/>
<rect x="104" y="152" width="8" height="8" fill="#c4a878"/>
<rect x="112" y="152" width="8" height="8" fill="#c4a878"/>
<rect x="120" y="152" width="8" height="8" fill="#c4a878"/>
<rect x="128" y="152" width="8" height="8" fill="#c4a878"/>
<rect x="136" y="152" width="8" height="8" fill="#c4a878"/>
<rect x="144" y="152" width="8" height="8" fill="#c4a878"/>
<rect x="152" y="152" width="8" height="8" fill="#2a2a3a"/>
<rect x="40" y="160" width="8" height="8" fill="#2a2a3a"/>
<rect x="48" y="160" width="8" height="8" fill="#f0dcc0"/>
<rect x="56" y="160" width="8" height="8" fill="#f0dcc0"/>
<rect x="64" y="160" width="8" height="8" fill="#f0dcc0"/>
<rect x="72" y="160" width="8" height="8" fill="#f0dcc0"/>
<rect x="80" y="160" width="8" height="8" fill="#f0dcc0"/>
<rect x="88" y="160" width="8" height="8" fill="#f0dcc0"/>
<rect x="96" y="160" width="8" height="8" fill="#f0dcc0"/>
<rect x="104" y="160" width="8" height="8" fill="#f0dcc0"/>
<rect x="112" y="160" width="8" height="8" fill="#f0dcc0"/>
<rect x="120" y="160" width="8" height="8" fill="#f0dcc0"/>
<rect x="128" y="160" width="8" height="8" fill="#f0dcc0"/>
<rect x="136" y="160" width="8" height="8" fill="#f0dcc0"/>
<rect x="144" y="160" width="8" height="8" fill="#2a2a3a"/>
<rect x="48" y="168" width="8" height="8" fill="#2a2a3a"/>
<rect x="56" y="168" width="8" height="8" fill="#f0dcc0"/>
<rect x="64" y="168" width="8" height="8" fill="#f0dcc0"/>
<rect x="72" y="168" width="8" height="8" fill="#f0dcc0"/>
<rect x="80" y="168" width="8" height="8" fill="#f0dcc0"/>
<rect x="88" y="168" width="8" height="8" fill="#f0dcc0"/>
<rect x="96" y="168" width="8" height="8" fill="#f0dcc0"/>
<rect x="104" y="168" width="8" height="8" fill="#f0dcc0"/>
<rect x="112" y="168" width="8" height="8" fill="#f0dcc0"/>
<rect x="120" y="168" width="8" height="8" fill="#f0dcc0"/>
<rect x="128" y="168" width="8" height="8" fill="#f0dcc0"/>
<rect x="136" y="168" width="8" height="8" fill="#2a2a3a"/>
<rect x="40" y="176" width="8" height="8" fill="#2a2a3a"/>
<rect x="48" y="176" width="8" height="8" fill="#f0dcc0"/>
<rect x="56" y="176" width="8" height="8" fill="#f0dcc0"/>
<rect x="64" y="176" width="8" height="8" fill="#f0dcc0"/>
<rect x="72" y="176" width="8" height="8" fill="#f0dcc0"/>
<rect x="80" y="176" width="8" height="8" fill="#f0dcc0"/>
<rect x="88" y="176" width="8" height="8" fill="#f0dcc0"/>
<rect x="96" y="176" width="8" height="8" fill="#f0dcc0"/>
<rect x="104" y="176" width="8" height="8" fill="#f0dcc0"/>
<rect x="112" y="176" width="8" height="8" fill="#f0dcc0"/>
<rect x="120" y="176" width="8" height="8" fill="#f0dcc0"/>
<rect x="128" y="176" width="8" height="8" fill="#f0dcc0"/>
<rect x="136" y="176" width="8" height="8" fill="#f0dcc0"/>
<rect x="144" y="176" width="8" height="8" fill="#2a2a3a"/>
<rect x="32" y="184" width="8" height="8" fill="#2a2a3a"/>
<rect x="40" y="184" width="8" height="8" fill="#f0dcc0"/>
<rect x="48" y="184" width="8" height="8" fill="#f0dcc0"/>
<rect x="56" y="184" width="8" height="8" fill="#f0dcc0"/>
<rect x="64" y="184" width="8" height="8" fill="#f0dcc0"/>
<rect x="72" y="184" width="8" height="8" fill="#faf9ff"/>
<rect x="80" y="184" width="8" height="8" fill="#faf9ff"/>
<rect x="88" y="184" width="8" height="8" fill="#faf9ff"/>
<rect x="96" y="184" width="8" height="8" fill="#faf9ff"/>
<rect x="104" y="184" width="8" height="8" fill="#faf9ff"/>
<rect x="112" y="184" width="8" height="8" fill="#faf9ff"/>
<rect x="120" y="184" width="8" height="8" fill="#f0dcc0"/>
<rect x="128" y="184" width="8" height="8" fill="#f0dcc0"/>
<rect x="136" y="184" width="8" height="8" fill="#f0dcc0"/>
<rect x="144" y="184" width="8" height="8" fill="#f0dcc0"/>
<rect x="152" y="184" width="8" height="8" fill="#2a2a3a"/>
<rect x="24" y="192" width="8" height="8" fill="#2a2a3a"/>
<rect x="32" y="192" width="8" height="8" fill="#f0dcc0"/>
<rect x="40" y="192" width="8" height="8" fill="#f0dcc0"/>
<rect x="48" y="192" width="8" height="8" fill="#f0dcc0"/>
<rect x="56" y="192" width="8" height="8" fill="#f0dcc0"/>
<rect x="64" y="192" width="8" height="8" fill="#faf9ff"/>
<rect x="72" y="192" width="8" height="8" fill="#faf9ff"/>
<rect x="80" y="192" width="8" height="8" fill="#faf9ff"/>
<rect x="88" y="192" width="8" height="8" fill="#faf9ff"/>
<rect x="96" y="192" width="8" height="8" fill="#faf9ff"/>
<rect x="104" y="192" width="8" height="8" fill="#faf9ff"/>
<rect x="112" y="192" width="8" height="8" fill="#faf9ff"/>
<rect x="120" y="192" width="8" height="8" fill="#faf9ff"/>
<rect x="128" y="192" width="8" height="8" fill="#f0dcc0"/>
<rect x="136" y="192" width="8" height="8" fill="#f0dcc0"/>
<rect x="144" y="192" width="8" height="8" fill="#f0dcc0"/>
<rect x="152" y="192" width="8" height="8" fill="#f0dcc0"/>
<rect x="160" y="192" width="8" height="8" fill="#2a2a3a"/>
<rect x="24" y="200" width="8" height="8" fill="#2a2a3a"/>
<rect x="32" y="200" width="8" height="8" fill="#c4a878"/>
<rect x="40" y="200" width="8" height="8" fill="#f0dcc0"/>
<rect x="48" y="200" width="8" height="8" fill="#f0dcc0"/>
<rect x="56" y="200" width="8" height="8" fill="#f0dcc0"/>
<rect x="64" y="200" width="8" height="8" fill="#f0dcc0"/>
<rect x="72" y="200" width="8" height="8" fill="#faf9ff"/>
<rect x="80" y="200" width="8" height="8" fill="#faf9ff"/>
<rect x="88" y="200" width="8" height="8" fill="#faf9ff"/>
<rect x="96" y="200" width="8" height="8" fill="#faf9ff"/>
<rect x="104" y="200" width="8" height="8" fill="#faf9ff"/>
<rect x="112" y="200" width="8" height="8" fill="#faf9ff"/>
<rect x="120" y="200" width="8" height="8" fill="#faf9ff"/>
<rect x="128" y="200" width="8" height="8" fill="#f0dcc0"/>
<rect x="136" y="200" width="8" height="8" fill="#f0dcc0"/>
<rect x="144" y="200" width="8" height="8" fill="#f0dcc0"/>
<rect x="152" y="200" width="8" height="8" fill="#f0dcc0"/>
<rect x="160" y="200" width="8" height="8" fill="#2a2a3a"/>
<rect x="16" y="208" width="8" height="8" fill="#3a3a4e"/>
<rect x="24" y="208" width="8" height="8" fill="#2a2a3a"/>
<rect x="32" y="208" width="8" height="8" fill="#c4a878"/>
<rect x="40" y="208" width="8" height="8" fill="#f0dcc0"/>
<rect x="48" y="208" width="8" height="8" fill="#f0dcc0"/>
<rect x="56" y="208" width="8" height="8" fill="#f0dcc0"/>
<rect x="64" y="208" width="8" height="8" fill="#f0dcc0"/>
<rect x="72" y="208" width="8" height="8" fill="#f0dcc0"/>
<rect x="80" y="208" width="8" height="8" fill="#f0dcc0"/>
<rect x="88" y="208" width="8" height="8" fill="#f0dcc0"/>
<rect x="96" y="208" width="8" height="8" fill="#f0dcc0"/>
<rect x="104" y="208" width="8" height="8" fill="#f0dcc0"/>
<rect x="112" y="208" width="8" height="8" fill="#f0dcc0"/>
<rect x="120" y="208" width="8" height="8" fill="#f0dcc0"/>
<rect x="128" y="208" width="8" height="8" fill="#f0dcc0"/>
<rect x="136" y="208" width="8" height="8" fill="#f0dcc0"/>
<rect x="144" y="208" width="8" height="8" fill="#f0dcc0"/>
<rect x="152" y="208" width="8" height="8" fill="#f0dcc0"/>
<rect x="160" y="208" width="8" height="8" fill="#2a2a3a"/>
<rect x="8" y="216" width="8" height="8" fill="#3a3a4e"/>
<rect x="16" y="216" width="8" height="8" fill="#2a2a3a"/>
<rect x="24" y="216" width="8" height="8" fill="#3a3a4e"/>
<rect x="32" y="216" width="8" height="8" fill="#2a2a3a"/>
<rect x="40" y="216" width="8" height="8" fill="#c4a878"/>
<rect x="48" y="216" width="8" height="8" fill="#f0dcc0"/>
<rect x="56" y="216" width="8" height="8" fill="#f0dcc0"/>
<rect x="64" y="216" width="8" height="8" fill="#f0dcc0"/>
<rect x="72" y="216" width="8" height="8" fill="#f0dcc0"/>
<rect x="80" y="216" width="8" height="8" fill="#f0dcc0"/>
<rect x="88" y="216" width="8" height="8" fill="#f0dcc0"/>
<rect x="96" y="216" width="8" height="8" fill="#f0dcc0"/>
<rect x="104" y="216" width="8" height="8" fill="#f0dcc0"/>
<rect x="112" y="216" width="8" height="8" fill="#f0dcc0"/>
<rect x="120" y="216" width="8" height="8" fill="#f0dcc0"/>
<rect x="128" y="216" width="8" height="8" fill="#f0dcc0"/>
<rect x="136" y="216" width="8" height="8" fill="#f0dcc0"/>
<rect x="144" y="216" width="8" height="8" fill="#f0dcc0"/>
<rect x="152" y="216" width="8" height="8" fill="#2a2a3a"/>
<rect x="0" y="224" width="8" height="8" fill="#3a3a4e"/>
<rect x="8" y="224" width="8" height="8" fill="#2a2a3a"/>
<rect x="32" y="224" width="8" height="8" fill="#2a2a3a"/>
<rect x="40" y="224" width="8" height="8" fill="#c4a878"/>
<rect x="48" y="224" width="8" height="8" fill="#f0dcc0"/>
<rect x="56" y="224" width="8" height="8" fill="#f0dcc0"/>
<rect x="64" y="224" width="8" height="8" fill="#f0dcc0"/>
<rect x="72" y="224" width="8" height="8" fill="#f0dcc0"/>
<rect x="80" y="224" width="8" height="8" fill="#f0dcc0"/>
<rect x="88" y="224" width="8" height="8" fill="#f0dcc0"/>
<rect x="96" y="224" width="8" height="8" fill="#f0dcc0"/>
<rect x="104" y="224" width="8" height="8" fill="#f0dcc0"/>
<rect x="112" y="224" width="8" height="8" fill="#f0dcc0"/>
<rect x="120" y="224" width="8" height="8" fill="#f0dcc0"/>
<rect x="128" y="224" width="8" height="8" fill="#f0dcc0"/>
<rect x="136" y="224" width="8" height="8" fill="#f0dcc0"/>
<rect x="144" y="224" width="8" height="8" fill="#f0dcc0"/>
<rect x="152" y="224" width="8" height="8" fill="#2a2a3a"/>
<rect x="0" y="232" width="8" height="8" fill="#2a2a3a"/>
<rect x="40" y="232" width="8" height="8" fill="#2a2a3a"/>
<rect x="48" y="232" width="8" height="8" fill="#f0dcc0"/>
<rect x="56" y="232" width="8" height="8" fill="#f0dcc0"/>
<rect x="64" y="232" width="8" height="8" fill="#2a2a3a"/>
<rect x="120" y="232" width="8" height="8" fill="#2a2a3a"/>
<rect x="128" y="232" width="8" height="8" fill="#f0dcc0"/>
<rect x="136" y="232" width="8" height="8" fill="#f0dcc0"/>
<rect x="144" y="232" width="8" height="8" fill="#2a2a3a"/>
<rect x="40" y="240" width="8" height="8" fill="#2a2a3a"/>
<rect x="48" y="240" width="8" height="8" fill="#f0dcc0"/>
<rect x="56" y="240" width="8" height="8" fill="#f0dcc0"/>
<rect x="64" y="240" width="8" height="8" fill="#2a2a3a"/>
<rect x="120" y="240" width="8" height="8" fill="#2a2a3a"/>
<rect x="128" y="240" width="8" height="8" fill="#f0dcc0"/>
<rect x="136" y="240" width="8" height="8" fill="#f0dcc0"/>
<rect x="144" y="240" width="8" height="8" fill="#2a2a3a"/>
<rect x="32" y="248" width="8" height="8" fill="#2a2a3a"/>
<rect x="40" y="248" width="8" height="8" fill="#2a2a3a"/>
<rect x="48" y="248" width="8" height="8" fill="#2a2a3a"/>
<rect x="56" y="248" width="8" height="8" fill="#2a2a3a"/>
<rect x="64" y="248" width="8" height="8" fill="#2a2a3a"/>
<rect x="72" y="248" width="8" height="8" fill="#2a2a3a"/>
<rect x="112" y="248" width="8" height="8" fill="#2a2a3a"/>
<rect x="120" y="248" width="8" height="8" fill="#2a2a3a"/>
<rect x="128" y="248" width="8" height="8" fill="#2a2a3a"/>
<rect x="136" y="248" width="8" height="8" fill="#2a2a3a"/>
<rect x="144" y="248" width="8" height="8" fill="#2a2a3a"/>
<rect x="152" y="248" width="8" height="8" fill="#2a2a3a"/>
    <g id="eyes">
      <rect x="48" y="80" width="8" height="8" fill="#2a2a3a"/>
<rect x="56" y="80" width="8" height="8" fill="#2a2a3a"/>
<rect x="64" y="80" width="8" height="8" fill="#2a2a3a"/>
<rect x="40" y="88" width="8" height="8" fill="#2a2a3a"/>
<rect x="48" y="88" width="8" height="8" fill="#faf9ff"/>
<rect x="56" y="88" width="8" height="8" fill="#4a8a5e"/>
<rect x="64" y="88" width="8" height="8" fill="#1e1e2e"/>
<rect x="72" y="88" width="8" height="8" fill="#2a2a3a"/>
<rect x="40" y="96" width="8" height="8" fill="#2a2a3a"/>
<rect x="48" y="96" width="8" height="8" fill="#4a8a5e"/>
<rect x="56" y="96" width="8" height="8" fill="#1e1e2e"/>
<rect x="64" y="96" width="8" height="8" fill="#4a8a5e"/>
<rect x="72" y="96" width="8" height="8" fill="#2a2a3a"/>
<rect x="48" y="104" width="8" height="8" fill="#2a2a3a"/>
<rect x="56" y="104" width="8" height="8" fill="#2a2a3a"/>
<rect x="64" y="104" width="8" height="8" fill="#2a2a3a"/>
<rect x="120" y="80" width="8" height="8" fill="#2a2a3a"/>
<rect x="128" y="80" width="8" height="8" fill="#2a2a3a"/>
<rect x="136" y="80" width="8" height="8" fill="#2a2a3a"/>
<rect x="112" y="88" width="8" height="8" fill="#2a2a3a"/>
<rect x="120" y="88" width="8" height="8" fill="#1e1e2e"/>
<rect x="128" y="88" width="8" height="8" fill="#4a8a5e"/>
<rect x="136" y="88" width="8" height="8" fill="#faf9ff"/>
<rect x="144" y="88" width="8" height="8" fill="#2a2a3a"/>
<rect x="112" y="96" width="8" height="8" fill="#2a2a3a"/>
<rect x="120" y="96" width="8" height="8" fill="#4a8a5e"/>
<rect x="128" y="96" width="8" height="8" fill="#1e1e2e"/>
<rect x="136" y="96" width="8" height="8" fill="#4a8a5e"/>
<rect x="144" y="96" width="8" height="8" fill="#2a2a3a"/>
<rect x="120" y="104" width="8" height="8" fill="#2a2a3a"/>
<rect x="128" y="104" width="8" height="8" fill="#2a2a3a"/>
<rect x="136" y="104" width="8" height="8" fill="#2a2a3a"/>
    </g>
  </g>
<text x="28" y="24" font-size="16" fill="#fc0" opacity=".7">!</text>
  <text x="158" y="20" font-size="20" fill="#fc0" opacity=".7">!</text>
</svg>